<svg width="74" height="60" viewBox="0 0 74 60" fill="none" xmlns="http://www.w3.org/2000/svg">
<path d="M46.25 47.9849V12.0149L20.9004 29.9999L46.25 47.9849ZM43.2022 50.8087L17.8572 32.8237C17.3604 32.4717 16.9622 32.0376 16.6894 31.5506C16.4166 31.0636 16.2755 30.5348 16.2755 29.9999C16.2755 29.465 16.4166 28.9363 16.6894 28.4493C16.9622 27.9622 17.3604 27.5282 17.8572 27.1762L43.2022 9.19119C43.8709 8.7161 44.6944 8.40738 45.574 8.302C46.4535 8.19662 47.3519 8.29904 48.1616 8.597C48.9712 8.89496 49.6578 9.37583 50.139 9.98202C50.6203 10.5882 50.8758 11.294 50.875 12.0149V47.9849C50.8758 48.7058 50.6203 49.4117 50.139 50.0179C49.6578 50.624 48.9712 51.1049 48.1616 51.4029C47.3519 51.7008 46.4535 51.8032 45.574 51.6979C44.6944 51.5925 43.8709 51.2838 43.2022 50.8087Z" fill="white"/>
</svg>
