<svg width="74" height="60" viewBox="0 0 74 60" fill="none" xmlns="http://www.w3.org/2000/svg">
<path d="M27.75 47.9849V12.0149L53.0996 29.9999L27.75 47.9849ZM30.7979 50.8087L56.1429 32.8237C56.6396 32.4717 57.0378 32.0376 57.3106 31.5506C57.5834 31.0635 57.7245 30.5348 57.7245 29.9999C57.7245 29.465 57.5834 28.9363 57.3106 28.4493C57.0378 27.9622 56.6396 27.5281 56.1429 27.1762L30.8025 9.19117C27.8009 7.06867 23.125 8.79367 23.125 12.0149V47.9849C23.1242 48.7058 23.3798 49.4116 23.861 50.0178C24.3423 50.624 25.0288 51.1049 25.8385 51.4029C26.6481 51.7008 27.5465 51.8032 28.4261 51.6979C29.3057 51.5925 30.1291 51.2838 30.7979 50.8087Z" fill="white"/>
</svg>
