<svg width="28" height="32" viewBox="0 0 28 32" fill="none" xmlns="http://www.w3.org/2000/svg">
<g clip-path="url(#clip0_289_54)">
<path d="M20.0222 1.99C21.0239 1.99 21.9635 2.21288 22.841 2.65864C23.7185 3.10441 24.4853 3.70567 25.1412 4.46244C25.7972 5.2192 26.3113 6.11591 26.6836 7.15257C27.0559 8.18923 27.2464 9.28809 27.2553 10.4492C27.2553 11.5791 27.0736 12.6624 26.7102 13.6991C26.3467 14.7357 25.8238 15.648 25.1412 16.4359L13.6401 29.871L2.13898 16.4359C1.46531 15.648 0.946765 14.7357 0.583338 13.6991C0.219912 12.6624 0.0337664 11.5791 0.0249023 10.4492C0.0249023 9.28809 0.211048 8.19442 0.583338 7.16812C0.955629 6.14183 1.47418 5.24511 2.13898 4.47799C2.80379 3.71086 3.57053 3.10441 4.4392 2.65864C5.30788 2.21288 6.24747 1.99 7.25798 1.99C7.99369 1.99 8.64963 2.08848 9.2258 2.28545C9.80196 2.48241 10.3338 2.75194 10.8213 3.09404C11.3089 3.43614 11.7786 3.85599 12.2307 4.35359C12.6828 4.85118 13.1526 5.38506 13.6401 5.95523C14.1276 5.3747 14.593 4.84082 15.0362 4.35359C15.4794 3.86636 15.9492 3.45169 16.4456 3.10959C16.942 2.76749 17.4782 2.49278 18.0544 2.28545C18.6306 2.07811 19.2865 1.97963 20.0222 1.99ZM23.9313 15.0208C24.4543 14.4092 24.8531 13.7095 25.1279 12.9216C25.4027 12.1337 25.5401 11.3096 25.5401 10.4492C25.5401 9.54726 25.3983 8.70756 25.1146 7.93007C24.831 7.15257 24.441 6.47356 23.9446 5.89303C23.4482 5.3125 22.8632 4.86155 22.1895 4.54018C21.5158 4.21882 20.7934 4.05295 20.0222 4.04259C19.2776 4.04259 18.6173 4.17735 18.0411 4.44689C17.4649 4.71642 16.9331 5.07925 16.4456 5.53538C15.9581 5.99151 15.4927 6.49429 15.0495 7.04372C14.6063 7.59315 14.1365 8.1685 13.6401 8.76976C13.1614 8.20997 12.6961 7.64499 12.244 7.07482C11.7919 6.50466 11.3221 5.99151 10.8346 5.53538C10.3471 5.07925 9.81083 4.70605 9.2258 4.41579C8.64077 4.12552 7.98483 3.98039 7.25798 3.98039C6.49567 3.98039 5.77768 4.14625 5.10401 4.47799C4.43034 4.80972 3.84531 5.27103 3.34893 5.86193C2.85254 6.45282 2.45809 7.1422 2.16557 7.93007C1.87306 8.71793 1.7268 9.55763 1.7268 10.4492C1.7268 11.3096 1.86419 12.1337 2.13898 12.9216C2.41377 13.7095 2.81708 14.4092 3.34893 15.0208L13.6401 27.0565L23.9313 15.0208Z" fill="#8E1537"/>
</g>
<defs>
<clipPath id="clip0_289_54">
<rect width="27.2304" height="31.8462" fill="white" transform="translate(0.0249023)"/>
</clipPath>
</defs>
</svg>
