<svg width="32" height="32" viewBox="0 0 32 32" fill="none" xmlns="http://www.w3.org/2000/svg">
<path d="M32 25.6008C32 29.1344 29.1352 32 25.5992 32H6.3992C2.8656 32 0 29.1344 0 25.6008V6.4008C0 2.8656 2.8656 0 6.3992 0H25.5992C29.136 0 32 2.8656 32 6.4008V25.6016V25.6008Z" fill="black"/>
<path d="M25.3727 2.44727H6.62634C4.23594 2.44727 2.29834 4.39207 2.29834 6.79047V17.0937C2.29834 19.4921 4.23514 21.4369 6.62634 21.4369H13.0831L15.2871 25.0249C15.2871 25.0249 15.3103 25.0673 15.3591 25.1265C15.4879 25.3473 15.7255 25.4977 15.9991 25.4977C16.2727 25.4977 16.5079 25.3497 16.6375 25.1313C16.6927 25.0665 16.7119 25.0241 16.7119 25.0241L18.9151 21.4361H25.3727C27.7623 21.4361 29.7007 19.4913 29.7007 17.0929V6.79047C29.7007 4.39207 27.7623 2.44727 25.3727 2.44727Z" fill="white"/>
<path d="M8.38476 9.99707C8.38476 9.99707 7.63676 9.99707 6.95836 10.6571V7.99707H5.28076V14.9867H6.97596V14.4395C6.97596 14.4395 7.37596 15.1619 8.38476 15.1619C8.38476 15.1619 10.7488 15.0747 10.7488 12.5539C10.7488 12.5539 10.6616 9.99787 8.38476 9.99787M8.01516 13.6851C7.41996 13.6851 6.93676 13.2019 6.93676 12.6067C6.93676 12.0115 7.41996 11.5291 8.01516 11.5291C8.61036 11.5291 9.09276 12.0115 9.09276 12.6067C9.09276 13.2019 8.60956 13.6851 8.01516 13.6851Z" fill="black"/>
<path d="M11.2881 7.84082V9.45762C11.2881 9.45762 12.0537 9.42322 12.0537 10.8488V14.9864H13.6705V10.4664C13.6705 10.4664 13.7401 7.84082 11.2881 7.84082Z" fill="black"/>
<path d="M17.6238 10.0176C17.6238 10.0176 14.8526 10.0176 14.8526 12.6064C14.8526 12.6064 14.763 15.16 17.6238 15.16C17.6238 15.16 20.4598 15.156 20.4598 12.6064C20.4598 12.6064 20.5526 10.0176 17.6238 10.0176ZM17.6246 13.684C17.0294 13.684 16.5462 13.2008 16.5462 12.6056C16.5462 12.0104 17.0294 11.528 17.6246 11.528C18.2198 11.528 18.7022 12.0104 18.7022 12.6056C18.7022 13.2008 18.219 13.684 17.6246 13.684Z" fill="black"/>
<path d="M25.088 10.1877V10.6565C25.088 10.6565 24.6056 10.0181 23.68 10.0181C23.68 10.0181 21.3064 9.91806 21.3064 12.5893C21.3064 12.5893 21.28 15.0781 23.6144 15.0781C23.6144 15.0781 24.5664 15.1173 25.0872 14.4389V14.8309C25.0872 14.8309 25.2048 16.0565 24.0176 16.0565H23.6136V17.5429H24.2656C24.2656 17.5429 26.7168 17.5693 26.7168 14.9221V10.1885H25.0864L25.088 10.1877ZM24.0856 13.6845C23.4904 13.6845 23.008 13.2013 23.008 12.6061C23.008 12.0109 23.4904 11.5285 24.0856 11.5285C24.6808 11.5285 25.1632 12.0109 25.1632 12.6061C25.1632 13.2013 24.68 13.6845 24.0856 13.6845Z" fill="black"/>
</svg>
