<svg width="37" height="37" viewBox="0 0 37 37" fill="none" xmlns="http://www.w3.org/2000/svg">
<path d="M2.25 16.8052C2.25 10.1012 2.25 6.74834 4.33356 4.66656C6.41533 2.58301 9.76822 2.58301 16.4722 2.58301H20.0278C26.7318 2.58301 30.0847 2.58301 32.1664 4.66656C34.25 6.74834 34.25 10.1012 34.25 16.8052V20.3608C34.25 27.0648 34.25 30.4177 32.1664 32.4995C30.0847 34.583 26.7318 34.583 20.0278 34.583H16.4722C9.76822 34.583 6.41533 34.583 4.33356 32.4995C2.25 30.4177 2.25 27.0648 2.25 20.3608V16.8052Z" stroke="black" stroke-width="4"/>
<path d="M26.2502 13.2503C27.7229 13.2503 28.9168 12.0564 28.9168 10.5837C28.9168 9.1109 27.7229 7.91699 26.2502 7.91699C24.7774 7.91699 23.5835 9.1109 23.5835 10.5837C23.5835 12.0564 24.7774 13.2503 26.2502 13.2503Z" fill="black"/>
<path d="M18.2498 23.9157C21.1954 23.9157 23.5832 21.5279 23.5832 18.5824C23.5832 15.6368 21.1954 13.249 18.2498 13.249C15.3043 13.249 12.9165 15.6368 12.9165 18.5824C12.9165 21.5279 15.3043 23.9157 18.2498 23.9157Z" stroke="black" stroke-width="4"/>
</svg>
