<svg width="40" height="32" viewBox="0 0 40 32" fill="none" xmlns="http://www.w3.org/2000/svg">
<path d="M20 0C21.71 0 23.464 0.0440002 25.164 0.116L27.172 0.212L29.094 0.326L30.894 0.448L32.538 0.576C34.3221 0.712555 36.0009 1.47389 37.279 2.72608C38.5572 3.97826 39.3528 5.64108 39.526 7.422L39.606 8.272L39.756 10.092C39.896 11.978 40 14.034 40 16C40 17.966 39.896 20.022 39.756 21.908L39.606 23.728C39.58 24.02 39.554 24.302 39.526 24.578C39.3528 26.3592 38.5569 28.0223 37.2783 29.2745C35.9997 30.5268 34.3204 31.2879 32.536 31.424L30.896 31.55L29.096 31.674L27.172 31.788L25.164 31.884C23.4437 31.9588 21.722 31.9974 20 32C18.278 31.9974 16.5563 31.9588 14.836 31.884L12.828 31.788L10.906 31.674L9.106 31.55L7.462 31.424C5.6779 31.2874 3.9991 30.5261 2.72094 29.2739C1.44279 28.0217 0.647149 26.3589 0.474 24.578L0.394 23.728L0.244 21.908C0.0910751 19.9423 0.00968804 17.9716 0 16C0 14.034 0.104 11.978 0.244 10.092L0.394 8.272C0.42 7.98 0.446 7.698 0.474 7.422C0.647081 5.6414 1.44243 3.97883 2.72018 2.72669C3.99793 1.47454 5.67626 0.713005 7.46 0.576L9.102 0.448L10.902 0.326L12.826 0.212L14.834 0.116C16.555 0.0412659 18.2774 0.00259057 20 0ZM20 4C18.35 4 16.652 4.044 15 4.112L13.044 4.206L11.166 4.316L9.402 4.436L7.786 4.562C6.93666 4.62226 6.13609 4.98129 5.52619 5.57545C4.91628 6.16961 4.53644 6.96053 4.454 7.808C4.22 10.226 4 13.236 4 16C4 18.764 4.22 21.774 4.454 24.192C4.624 25.936 6.008 27.292 7.786 27.438L9.402 27.562L11.166 27.682L13.044 27.794L15 27.888C16.652 27.956 18.35 28 20 28C21.65 28 23.348 27.956 25 27.888L26.956 27.794L28.834 27.684L30.598 27.564L32.214 27.438C33.0633 27.3777 33.8639 27.0187 34.4738 26.4245C35.0837 25.8304 35.4635 25.0395 35.546 24.192C35.78 21.774 36 18.764 36 16C36 13.236 35.78 10.226 35.546 7.808C35.4635 6.96053 35.0837 6.16961 34.4738 5.57545C33.8639 4.98129 33.0633 4.62226 32.214 4.562L30.598 4.438L28.834 4.318L26.956 4.206L25 4.112C23.3343 4.04033 21.6673 4.00299 20 4ZM16 11.15C15.9999 10.9545 16.0475 10.762 16.1387 10.5891C16.23 10.4162 16.3621 10.2683 16.5235 10.1581C16.685 10.0479 16.8709 9.97879 17.0651 9.95681C17.2593 9.93484 17.456 9.96065 17.638 10.032L17.8 10.112L26.2 14.96C26.3673 15.0565 26.5088 15.192 26.6125 15.3549C26.7162 15.5178 26.7791 15.7033 26.7958 15.8957C26.8125 16.0881 26.7825 16.2817 26.7083 16.46C26.6342 16.6383 26.5182 16.7961 26.37 16.92L26.2 17.04L17.8 21.89C17.6307 21.988 17.4401 22.0432 17.2446 22.0507C17.0491 22.0582 16.8548 22.0177 16.6785 21.933C16.5022 21.8482 16.3494 21.7216 16.2332 21.5642C16.117 21.4068 16.0411 21.2234 16.012 21.03L16 20.85V11.15Z" fill="black"/>
</svg>
