<svg width="20" height="21" viewBox="0 0 20 21" fill="none" xmlns="http://www.w3.org/2000/svg">
<path d="M1.66667 10.5C1.66667 15.1025 5.39751 18.8333 10 18.8333C14.6025 18.8333 18.3333 15.1025 18.3333 10.5C18.3333 5.89746 14.6025 2.16663 10 2.16663C5.39751 2.16663 1.66667 5.89746 1.66667 10.5Z" stroke="#333333" stroke-width="1.25" stroke-linecap="round" stroke-linejoin="round"/>
<path d="M10.8333 2.20825C10.8333 2.20825 13.3333 5.49992 13.3333 10.4999C13.3333 15.4999 10.8333 18.7916 10.8333 18.7916M9.16667 18.7916C9.16667 18.7916 6.66667 15.4999 6.66667 10.4999C6.66667 5.49992 9.16667 2.20825 9.16667 2.20825M2.19167 13.4166H17.8083M2.19167 7.58325H17.8083" stroke="#333333" stroke-width="1.25" stroke-linecap="round" stroke-linejoin="round"/>
</svg>
