<svg width="50" height="69" viewBox="0 0 50 69" fill="none" xmlns="http://www.w3.org/2000/svg">
<path d="M37.5001 18.75H4.16675V27.0833H37.5001V18.75Z" fill="#8E1537" stroke="black" stroke-width="1.5" stroke-miterlimit="2" stroke-linecap="round" stroke-linejoin="round"/>
<path d="M37.5001 12.5V33.3333C37.5001 35.6344 35.6346 37.5 33.3334 37.5H12.5001M12.5001 37.5H8.33341C6.03223 37.5 4.16675 35.6344 4.16675 33.3333V8.33329C4.16675 6.03211 6.03223 4.16663 8.33341 4.16663H41.6667C43.9679 4.16663 45.8334 6.03211 45.8334 8.33329V41.6666C45.8334 43.9687 43.9688 45.8333 41.6667 45.8333H16.6667C14.3647 45.8333 12.5001 43.9687 12.5001 41.6666V37.5Z" stroke="black" stroke-width="1.5" stroke-miterlimit="2" stroke-linecap="round" stroke-linejoin="round"/>
<path d="M14.16 60.136L14.256 57.096H14.128L12.224 62.504L10.32 57.096H10.192L10.288 60.136V65H8.672V54.504H10.88L12.24 58.36H12.336L13.712 54.504H15.776V65H14.16V60.136ZM17.6211 65V54.504H23.8291V56.12H19.4611V58.856H23.6691V60.488H19.4611V63.368H23.8291V65H17.6211ZM27.5623 57.464H27.4343V65H25.8503V54.504H28.1223L30.6983 62.04H30.8263V54.504H32.4103V65H30.1383L27.5623 57.464ZM36.0794 54.504V61.048C36.0794 61.4427 36.09 61.7947 36.1114 62.104C36.1327 62.4133 36.1914 62.6747 36.2874 62.888C36.394 63.1013 36.5487 63.272 36.7514 63.4C36.954 63.5173 37.2314 63.576 37.5834 63.576C37.9354 63.576 38.2127 63.5173 38.4154 63.4C38.618 63.272 38.7674 63.1013 38.8634 62.888C38.97 62.6747 39.034 62.4133 39.0554 62.104C39.0767 61.784 39.0874 61.432 39.0874 61.048V54.504H40.9274V60.744C40.9274 61.4907 40.8847 62.1413 40.7994 62.696C40.7247 63.24 40.5647 63.6987 40.3194 64.072C40.074 64.4347 39.7327 64.712 39.2954 64.904C38.858 65.0853 38.2874 65.176 37.5834 65.176C36.8794 65.176 36.3087 65.0853 35.8714 64.904C35.434 64.712 35.0927 64.4347 34.8474 64.072C34.602 63.6987 34.4367 63.24 34.3514 62.696C34.2767 62.1413 34.2394 61.4907 34.2394 60.744V54.504H36.0794Z" fill="black"/>
</svg>
