<svg width="32" height="32" viewBox="0 0 32 32" fill="none" xmlns="http://www.w3.org/2000/svg">
<path d="M31.3258 28.0946C31.755 28.5239 31.9962 29.106 31.9962 29.7131C31.9962 30.3201 31.755 30.9023 31.3258 31.3315C30.8966 31.7608 30.3144 32.0019 29.7074 32.0019C29.1003 32.0019 28.5181 31.7608 28.0889 31.3315L16 19.2388L3.90729 31.3277C3.47805 31.757 2.89588 31.9981 2.28884 31.9981C1.6818 31.9981 1.09963 31.757 0.670386 31.3277C0.241145 30.8985 6.39618e-09 30.3163 0 29.7093C-6.39618e-09 29.1022 0.241145 28.52 0.670386 28.0908L12.7631 16.0019L0.674193 3.9092C0.244953 3.47996 0.00380821 2.89778 0.00380821 2.29074C0.00380822 1.68371 0.244953 1.10153 0.674193 0.67229C1.10343 0.243049 1.68561 0.00190375 2.29265 0.00190374C2.89969 0.00190374 3.48186 0.243049 3.9111 0.67229L16 12.765L28.0927 0.670385C28.5219 0.241145 29.1041 -1.01133e-08 29.7112 0C30.3182 1.01133e-08 30.9004 0.241144 31.3296 0.670385C31.7589 1.09963 32 1.6818 32 2.28884C32 2.89588 31.7589 3.47805 31.3296 3.90729L19.2369 16.0019L31.3258 28.0946Z" fill="#8E1537"/>
</svg>
